<svg xmlns="http://www.w3.org/2000/svg" xmlns:xlink="http://www.w3.org/1999/xlink" width="500" zoomAndPan="magnify" viewBox="0 0 375 374.999991" height="500" preserveAspectRatio="xMidYMid meet" version="1.0"><defs><g/><clipPath id="3c4f815a27"><path d="M 64.4375 64.4375 L 310.4375 64.4375 L 310.4375 310.4375 L 64.4375 310.4375 Z M 64.4375 64.4375 " clip-rule="nonzero"/></clipPath><clipPath id="dc7edc6de6"><path d="M 187.503906 305.625 C 122.269531 305.625 69.382812 252.742188 69.382812 187.503906 C 69.382812 122.269531 122.269531 69.382812 187.503906 69.382812 C 252.742188 69.382812 305.625 122.269531 305.625 187.503906 C 305.625 252.742188 252.742188 305.625 187.503906 305.625 Z M 187.503906 64.4375 C 119.539062 64.4375 64.4375 119.539062 64.4375 187.503906 C 64.4375 255.472656 119.539062 310.570312 187.503906 310.570312 C 255.472656 310.570312 310.570312 255.472656 310.570312 187.503906 C 310.570312 119.539062 255.472656 64.4375 187.503906 64.4375 Z M 187.503906 64.4375 " clip-rule="nonzero"/></clipPath><linearGradient x1="517.475691" gradientTransform="matrix(0.402613, 0, 0, 0.402613, 64.439197, 64.439208)" y1="665.990479" x2="93.632729" gradientUnits="userSpaceOnUse" y2="-55.04012" id="8c0f4cf3a2"><stop stop-opacity="1" stop-color="rgb(0%, 25.463867%, 59.533691%)" offset="0"/><stop stop-opacity="1" stop-color="rgb(0%, 25.38147%, 59.342957%)" offset="0.0078125"/><stop stop-opacity="1" stop-color="rgb(0%, 25.219727%, 58.963013%)" offset="0.015625"/><stop stop-opacity="1" stop-color="rgb(0%, 25.056458%, 58.583069%)" offset="0.0234375"/><stop stop-opacity="1" stop-color="rgb(0%, 24.894714%, 58.203125%)" offset="0.03125"/><stop stop-opacity="1" stop-color="rgb(0%, 24.731445%, 57.823181%)" offset="0.0390625"/><stop stop-opacity="1" stop-color="rgb(0%, 24.569702%, 57.441711%)" offset="0.046875"/><stop stop-opacity="1" stop-color="rgb(0%, 24.406433%, 57.061768%)" offset="0.0546875"/><stop stop-opacity="1" stop-color="rgb(0%, 24.243164%, 56.681824%)" offset="0.0625"/><stop stop-opacity="1" stop-color="rgb(0%, 24.081421%, 56.30188%)" offset="0.0703125"/><stop stop-opacity="1" stop-color="rgb(0%, 23.918152%, 55.921936%)" offset="0.078125"/><stop stop-opacity="1" stop-color="rgb(0%, 23.756409%, 55.541992%)" offset="0.0859375"/><stop stop-opacity="1" stop-color="rgb(0%, 23.59314%, 55.160522%)" offset="0.09375"/><stop stop-opacity="1" stop-color="rgb(0%, 23.431396%, 54.780579%)" offset="0.101563"/><stop stop-opacity="1" stop-color="rgb(0%, 23.268127%, 54.400635%)" offset="0.109375"/><stop stop-opacity="1" stop-color="rgb(0%, 23.104858%, 54.020691%)" offset="0.117188"/><stop stop-opacity="1" stop-color="rgb(0%, 22.943115%, 53.640747%)" offset="0.125"/><stop stop-opacity="1" stop-color="rgb(0%, 22.779846%, 53.260803%)" offset="0.132813"/><stop stop-opacity="1" stop-color="rgb(0%, 22.618103%, 52.879333%)" offset="0.140625"/><stop stop-opacity="1" stop-color="rgb(0%, 22.454834%, 52.49939%)" offset="0.148438"/><stop stop-opacity="1" stop-color="rgb(0%, 22.293091%, 52.119446%)" offset="0.15625"/><stop stop-opacity="1" stop-color="rgb(0%, 22.129822%, 51.739502%)" offset="0.164062"/><stop stop-opacity="1" stop-color="rgb(0%, 21.966553%, 51.359558%)" offset="0.171875"/><stop stop-opacity="1" stop-color="rgb(0%, 21.80481%, 50.979614%)" offset="0.179688"/><stop stop-opacity="1" stop-color="rgb(0%, 21.641541%, 50.598145%)" offset="0.1875"/><stop stop-opacity="1" stop-color="rgb(0%, 21.479797%, 50.218201%)" offset="0.195313"/><stop stop-opacity="1" stop-color="rgb(0%, 21.316528%, 49.838257%)" offset="0.203125"/><stop stop-opacity="1" stop-color="rgb(0%, 21.154785%, 49.458313%)" offset="0.210938"/><stop stop-opacity="1" stop-color="rgb(0%, 20.991516%, 49.078369%)" offset="0.21875"/><stop stop-opacity="1" stop-color="rgb(0%, 20.828247%, 48.698425%)" offset="0.226562"/><stop stop-opacity="1" stop-color="rgb(0%, 20.666504%, 48.316956%)" offset="0.234375"/><stop stop-opacity="1" stop-color="rgb(0%, 20.503235%, 47.937012%)" offset="0.242187"/><stop stop-opacity="1" stop-color="rgb(0%, 20.341492%, 47.557068%)" offset="0.25"/><stop stop-opacity="1" stop-color="rgb(0%, 20.178223%, 47.177124%)" offset="0.257813"/><stop stop-opacity="1" stop-color="rgb(0%, 20.014954%, 46.79718%)" offset="0.265625"/><stop stop-opacity="1" stop-color="rgb(0%, 19.85321%, 46.417236%)" offset="0.273438"/><stop stop-opacity="1" stop-color="rgb(0%, 19.689941%, 46.035767%)" offset="0.28125"/><stop stop-opacity="1" stop-color="rgb(0%, 19.528198%, 45.655823%)" offset="0.289062"/><stop stop-opacity="1" stop-color="rgb(0%, 19.364929%, 45.275879%)" offset="0.296875"/><stop stop-opacity="1" stop-color="rgb(0%, 19.203186%, 44.895935%)" offset="0.304687"/><stop stop-opacity="1" stop-color="rgb(0%, 19.039917%, 44.515991%)" offset="0.3125"/><stop stop-opacity="1" stop-color="rgb(0%, 18.876648%, 44.136047%)" offset="0.320312"/><stop stop-opacity="1" stop-color="rgb(0%, 18.714905%, 43.754578%)" offset="0.328125"/><stop stop-opacity="1" stop-color="rgb(0%, 18.551636%, 43.374634%)" offset="0.335937"/><stop stop-opacity="1" stop-color="rgb(0%, 18.389893%, 42.99469%)" offset="0.34375"/><stop stop-opacity="1" stop-color="rgb(0%, 18.226624%, 42.614746%)" offset="0.351562"/><stop stop-opacity="1" stop-color="rgb(0%, 18.06488%, 42.234802%)" offset="0.359375"/><stop stop-opacity="1" stop-color="rgb(0%, 17.901611%, 41.854858%)" offset="0.367188"/><stop stop-opacity="1" stop-color="rgb(0%, 17.738342%, 41.473389%)" offset="0.370209"/><stop stop-opacity="1" stop-color="rgb(0%, 17.657471%, 41.28418%)" offset="0.375"/><stop stop-opacity="1" stop-color="rgb(0%, 17.576599%, 41.093445%)" offset="0.382812"/><stop stop-opacity="1" stop-color="rgb(0%, 17.41333%, 40.713501%)" offset="0.390625"/><stop stop-opacity="1" stop-color="rgb(0%, 17.251587%, 40.333557%)" offset="0.398437"/><stop stop-opacity="1" stop-color="rgb(0%, 17.088318%, 39.953613%)" offset="0.40625"/><stop stop-opacity="1" stop-color="rgb(0%, 16.926575%, 39.573669%)" offset="0.414063"/><stop stop-opacity="1" stop-color="rgb(0%, 16.763306%, 39.1922%)" offset="0.421875"/><stop stop-opacity="1" stop-color="rgb(0%, 16.600037%, 38.812256%)" offset="0.429688"/><stop stop-opacity="1" stop-color="rgb(0%, 16.438293%, 38.432312%)" offset="0.4375"/><stop stop-opacity="1" stop-color="rgb(0%, 16.275024%, 38.052368%)" offset="0.445312"/><stop stop-opacity="1" stop-color="rgb(0%, 16.113281%, 37.672424%)" offset="0.453125"/><stop stop-opacity="1" stop-color="rgb(0%, 15.950012%, 37.29248%)" offset="0.460937"/><stop stop-opacity="1" stop-color="rgb(0%, 15.788269%, 36.911011%)" offset="0.46875"/><stop stop-opacity="1" stop-color="rgb(0%, 15.625%, 36.531067%)" offset="0.476563"/><stop stop-opacity="1" stop-color="rgb(0%, 15.461731%, 36.151123%)" offset="0.484375"/><stop stop-opacity="1" stop-color="rgb(0%, 15.299988%, 35.771179%)" offset="0.492188"/><stop stop-opacity="1" stop-color="rgb(0%, 15.136719%, 35.391235%)" offset="0.5"/><stop stop-opacity="1" stop-color="rgb(0%, 14.974976%, 35.011292%)" offset="0.507812"/><stop stop-opacity="1" stop-color="rgb(0%, 14.811707%, 34.629822%)" offset="0.515625"/><stop stop-opacity="1" stop-color="rgb(0%, 14.648438%, 34.249878%)" offset="0.523438"/><stop stop-opacity="1" stop-color="rgb(0%, 14.486694%, 33.869934%)" offset="0.53125"/><stop stop-opacity="1" stop-color="rgb(0%, 14.323425%, 33.48999%)" offset="0.539063"/><stop stop-opacity="1" stop-color="rgb(0%, 14.161682%, 33.110046%)" offset="0.546875"/><stop stop-opacity="1" stop-color="rgb(0%, 13.998413%, 32.730103%)" offset="0.554688"/><stop stop-opacity="1" stop-color="rgb(0%, 13.83667%, 32.348633%)" offset="0.5625"/><stop stop-opacity="1" stop-color="rgb(0%, 13.673401%, 31.968689%)" offset="0.570312"/><stop stop-opacity="1" stop-color="rgb(0%, 13.510132%, 31.588745%)" offset="0.578125"/><stop stop-opacity="1" stop-color="rgb(0%, 13.348389%, 31.208801%)" offset="0.585938"/><stop stop-opacity="1" stop-color="rgb(0%, 13.18512%, 30.828857%)" offset="0.59375"/><stop stop-opacity="1" stop-color="rgb(0%, 13.023376%, 30.448914%)" offset="0.601562"/><stop stop-opacity="1" stop-color="rgb(0%, 12.860107%, 30.067444%)" offset="0.609375"/><stop stop-opacity="1" stop-color="rgb(0%, 12.698364%, 29.6875%)" offset="0.617187"/><stop stop-opacity="1" stop-color="rgb(0%, 12.535095%, 29.307556%)" offset="0.625"/><stop stop-opacity="1" stop-color="rgb(0%, 12.371826%, 28.927612%)" offset="0.629791"/><stop stop-opacity="1" stop-color="rgb(0%, 12.290955%, 28.738403%)" offset="0.632812"/><stop stop-opacity="1" stop-color="rgb(0%, 12.210083%, 28.547668%)" offset="0.640625"/><stop stop-opacity="1" stop-color="rgb(0%, 12.046814%, 28.167725%)" offset="0.648437"/><stop stop-opacity="1" stop-color="rgb(0%, 11.885071%, 27.786255%)" offset="0.65625"/><stop stop-opacity="1" stop-color="rgb(0%, 11.721802%, 27.406311%)" offset="0.664062"/><stop stop-opacity="1" stop-color="rgb(0%, 11.560059%, 27.026367%)" offset="0.671875"/><stop stop-opacity="1" stop-color="rgb(0%, 11.39679%, 26.646423%)" offset="0.679687"/><stop stop-opacity="1" stop-color="rgb(0%, 11.233521%, 26.266479%)" offset="0.6875"/><stop stop-opacity="1" stop-color="rgb(0%, 11.071777%, 25.886536%)" offset="0.695312"/><stop stop-opacity="1" stop-color="rgb(0%, 10.908508%, 25.505066%)" offset="0.703125"/><stop stop-opacity="1" stop-color="rgb(0%, 10.746765%, 25.125122%)" offset="0.710938"/><stop stop-opacity="1" stop-color="rgb(0%, 10.583496%, 24.745178%)" offset="0.71875"/><stop stop-opacity="1" stop-color="rgb(0%, 10.421753%, 24.365234%)" offset="0.726562"/><stop stop-opacity="1" stop-color="rgb(0%, 10.258484%, 23.985291%)" offset="0.734375"/><stop stop-opacity="1" stop-color="rgb(0%, 10.095215%, 23.605347%)" offset="0.742187"/><stop stop-opacity="1" stop-color="rgb(0%, 9.933472%, 23.223877%)" offset="0.75"/><stop stop-opacity="1" stop-color="rgb(0%, 9.770203%, 22.843933%)" offset="0.757812"/><stop stop-opacity="1" stop-color="rgb(0%, 9.608459%, 22.463989%)" offset="0.765625"/><stop stop-opacity="1" stop-color="rgb(0%, 9.44519%, 22.084045%)" offset="0.773437"/><stop stop-opacity="1" stop-color="rgb(0%, 9.281921%, 21.704102%)" offset="0.78125"/><stop stop-opacity="1" stop-color="rgb(0%, 9.120178%, 21.324158%)" offset="0.789062"/><stop stop-opacity="1" stop-color="rgb(0%, 8.956909%, 20.942688%)" offset="0.796875"/><stop stop-opacity="1" stop-color="rgb(0%, 8.795166%, 20.562744%)" offset="0.804687"/><stop stop-opacity="1" stop-color="rgb(0%, 8.631897%, 20.1828%)" offset="0.8125"/><stop stop-opacity="1" stop-color="rgb(0%, 8.470154%, 19.802856%)" offset="0.820313"/><stop stop-opacity="1" stop-color="rgb(0%, 8.306885%, 19.422913%)" offset="0.828125"/><stop stop-opacity="1" stop-color="rgb(0%, 8.143616%, 19.042969%)" offset="0.835938"/><stop stop-opacity="1" stop-color="rgb(0%, 7.981873%, 18.661499%)" offset="0.84375"/><stop stop-opacity="1" stop-color="rgb(0%, 7.818604%, 18.281555%)" offset="0.851562"/><stop stop-opacity="1" stop-color="rgb(0%, 7.65686%, 17.901611%)" offset="0.859375"/><stop stop-opacity="1" stop-color="rgb(0%, 7.493591%, 17.521667%)" offset="0.867188"/><stop stop-opacity="1" stop-color="rgb(0%, 7.331848%, 17.141724%)" offset="0.875"/><stop stop-opacity="1" stop-color="rgb(0%, 7.168579%, 16.76178%)" offset="0.882812"/><stop stop-opacity="1" stop-color="rgb(0%, 7.00531%, 16.38031%)" offset="0.890625"/><stop stop-opacity="1" stop-color="rgb(0%, 6.843567%, 16.000366%)" offset="0.898437"/><stop stop-opacity="1" stop-color="rgb(0%, 6.680298%, 15.620422%)" offset="0.90625"/><stop stop-opacity="1" stop-color="rgb(0%, 6.518555%, 15.240479%)" offset="0.914062"/><stop stop-opacity="1" stop-color="rgb(0%, 6.355286%, 14.860535%)" offset="0.921875"/><stop stop-opacity="1" stop-color="rgb(0%, 6.193542%, 14.480591%)" offset="0.929687"/><stop stop-opacity="1" stop-color="rgb(0%, 6.030273%, 14.099121%)" offset="0.9375"/><stop stop-opacity="1" stop-color="rgb(0%, 5.867004%, 13.719177%)" offset="0.945313"/><stop stop-opacity="1" stop-color="rgb(0%, 5.705261%, 13.339233%)" offset="0.953125"/><stop stop-opacity="1" stop-color="rgb(0%, 5.541992%, 12.95929%)" offset="0.960938"/><stop stop-opacity="1" stop-color="rgb(0%, 5.380249%, 12.579346%)" offset="0.96875"/><stop stop-opacity="1" stop-color="rgb(0%, 5.21698%, 12.199402%)" offset="0.976562"/><stop stop-opacity="1" stop-color="rgb(0%, 5.055237%, 11.817932%)" offset="0.984375"/><stop stop-opacity="1" stop-color="rgb(0%, 4.891968%, 11.437988%)" offset="0.992188"/><stop stop-opacity="1" stop-color="rgb(0%, 4.728699%, 11.058044%)" offset="1"/></linearGradient><clipPath id="37e74a04ed"><path d="M 102.402344 102.402344 L 272.652344 102.402344 L 272.652344 272.652344 L 102.402344 272.652344 Z M 102.402344 102.402344 " clip-rule="nonzero"/></clipPath><clipPath id="d61c3065ad"><path d="M 187.5 269.183594 C 142.390625 269.183594 105.820312 232.613281 105.820312 187.5 C 105.820312 142.390625 142.390625 105.820312 187.5 105.820312 C 232.613281 105.820312 269.183594 142.390625 269.183594 187.5 C 269.183594 232.613281 232.613281 269.183594 187.5 269.183594 Z M 187.5 102.402344 C 140.503906 102.402344 102.402344 140.503906 102.402344 187.5 C 102.402344 234.5 140.503906 272.601562 187.5 272.601562 C 234.5 272.601562 272.601562 234.5 272.601562 187.5 C 272.601562 140.503906 234.5 102.402344 187.5 102.402344 Z M 187.5 102.402344 " clip-rule="nonzero"/></clipPath><linearGradient x1="517.701537" gradientTransform="matrix(0.278409, 0, 0, 0.278409, 102.401262, 102.401248)" y1="666.374682" x2="93.632771" gradientUnits="userSpaceOnUse" y2="-55.040049" id="e5de9f3ee7"><stop stop-opacity="1" stop-color="rgb(0%, 3.523254%, 8.23822%)" offset="0"/><stop stop-opacity="1" stop-color="rgb(0%, 3.604126%, 8.428955%)" offset="0.0078125"/><stop stop-opacity="1" stop-color="rgb(0%, 3.767395%, 8.808899%)" offset="0.015625"/><stop stop-opacity="1" stop-color="rgb(0%, 3.929138%, 9.188843%)" offset="0.0234375"/><stop stop-opacity="1" stop-color="rgb(0%, 4.092407%, 9.568787%)" offset="0.03125"/><stop stop-opacity="1" stop-color="rgb(0%, 4.255676%, 9.950256%)" offset="0.0390625"/><stop stop-opacity="1" stop-color="rgb(0%, 4.417419%, 10.3302%)" offset="0.046875"/><stop stop-opacity="1" stop-color="rgb(0%, 4.580688%, 10.710144%)" offset="0.0546875"/><stop stop-opacity="1" stop-color="rgb(0%, 4.743958%, 11.091614%)" offset="0.0625"/><stop stop-opacity="1" stop-color="rgb(0%, 4.905701%, 11.471558%)" offset="0.0703125"/><stop stop-opacity="1" stop-color="rgb(0%, 5.06897%, 11.851501%)" offset="0.078125"/><stop stop-opacity="1" stop-color="rgb(0%, 5.230713%, 12.232971%)" offset="0.0859375"/><stop stop-opacity="1" stop-color="rgb(0%, 5.393982%, 12.612915%)" offset="0.09375"/><stop stop-opacity="1" stop-color="rgb(0%, 5.557251%, 12.992859%)" offset="0.101562"/><stop stop-opacity="1" stop-color="rgb(0%, 5.718994%, 13.372803%)" offset="0.109375"/><stop stop-opacity="1" stop-color="rgb(0%, 5.882263%, 13.754272%)" offset="0.117188"/><stop stop-opacity="1" stop-color="rgb(0%, 6.045532%, 14.134216%)" offset="0.125"/><stop stop-opacity="1" stop-color="rgb(0%, 6.207275%, 14.51416%)" offset="0.132812"/><stop stop-opacity="1" stop-color="rgb(0%, 6.370544%, 14.89563%)" offset="0.140625"/><stop stop-opacity="1" stop-color="rgb(0%, 6.533813%, 15.275574%)" offset="0.148438"/><stop stop-opacity="1" stop-color="rgb(0%, 6.695557%, 15.655518%)" offset="0.15625"/><stop stop-opacity="1" stop-color="rgb(0%, 6.858826%, 16.036987%)" offset="0.164062"/><stop stop-opacity="1" stop-color="rgb(0%, 7.020569%, 16.416931%)" offset="0.171875"/><stop stop-opacity="1" stop-color="rgb(0%, 7.183838%, 16.796875%)" offset="0.179688"/><stop stop-opacity="1" stop-color="rgb(0%, 7.347107%, 17.176819%)" offset="0.1875"/><stop stop-opacity="1" stop-color="rgb(0%, 7.50885%, 17.558289%)" offset="0.195313"/><stop stop-opacity="1" stop-color="rgb(0%, 7.672119%, 17.938232%)" offset="0.203125"/><stop stop-opacity="1" stop-color="rgb(0%, 7.835388%, 18.318176%)" offset="0.210937"/><stop stop-opacity="1" stop-color="rgb(0%, 7.997131%, 18.699646%)" offset="0.21875"/><stop stop-opacity="1" stop-color="rgb(0%, 8.1604%, 19.07959%)" offset="0.226563"/><stop stop-opacity="1" stop-color="rgb(0%, 8.322144%, 19.459534%)" offset="0.234375"/><stop stop-opacity="1" stop-color="rgb(0%, 8.485413%, 19.841003%)" offset="0.242188"/><stop stop-opacity="1" stop-color="rgb(0%, 8.648682%, 20.220947%)" offset="0.25"/><stop stop-opacity="1" stop-color="rgb(0%, 8.810425%, 20.600891%)" offset="0.257812"/><stop stop-opacity="1" stop-color="rgb(0%, 8.973694%, 20.980835%)" offset="0.265625"/><stop stop-opacity="1" stop-color="rgb(0%, 9.136963%, 21.362305%)" offset="0.273438"/><stop stop-opacity="1" stop-color="rgb(0%, 9.298706%, 21.742249%)" offset="0.28125"/><stop stop-opacity="1" stop-color="rgb(0%, 9.461975%, 22.122192%)" offset="0.289063"/><stop stop-opacity="1" stop-color="rgb(0%, 9.625244%, 22.503662%)" offset="0.296875"/><stop stop-opacity="1" stop-color="rgb(0%, 9.786987%, 22.883606%)" offset="0.304688"/><stop stop-opacity="1" stop-color="rgb(0%, 9.950256%, 23.26355%)" offset="0.3125"/><stop stop-opacity="1" stop-color="rgb(0%, 10.112%, 23.64502%)" offset="0.320313"/><stop stop-opacity="1" stop-color="rgb(0%, 10.275269%, 24.024963%)" offset="0.328125"/><stop stop-opacity="1" stop-color="rgb(0%, 10.438538%, 24.404907%)" offset="0.335938"/><stop stop-opacity="1" stop-color="rgb(0%, 10.600281%, 24.784851%)" offset="0.34375"/><stop stop-opacity="1" stop-color="rgb(0%, 10.76355%, 25.166321%)" offset="0.351562"/><stop stop-opacity="1" stop-color="rgb(0%, 10.926819%, 25.546265%)" offset="0.359375"/><stop stop-opacity="1" stop-color="rgb(0%, 11.088562%, 25.926208%)" offset="0.367187"/><stop stop-opacity="1" stop-color="rgb(0%, 11.251831%, 26.307678%)" offset="0.370209"/><stop stop-opacity="1" stop-color="rgb(0%, 11.332703%, 26.498413%)" offset="0.375"/><stop stop-opacity="1" stop-color="rgb(0%, 11.413574%, 26.687622%)" offset="0.382812"/><stop stop-opacity="1" stop-color="rgb(0%, 11.576843%, 27.067566%)" offset="0.390625"/><stop stop-opacity="1" stop-color="rgb(0%, 11.740112%, 27.44751%)" offset="0.398437"/><stop stop-opacity="1" stop-color="rgb(0%, 11.901855%, 27.828979%)" offset="0.40625"/><stop stop-opacity="1" stop-color="rgb(0%, 12.065125%, 28.208923%)" offset="0.414062"/><stop stop-opacity="1" stop-color="rgb(0%, 12.228394%, 28.588867%)" offset="0.421875"/><stop stop-opacity="1" stop-color="rgb(0%, 12.390137%, 28.970337%)" offset="0.429688"/><stop stop-opacity="1" stop-color="rgb(0%, 12.553406%, 29.350281%)" offset="0.4375"/><stop stop-opacity="1" stop-color="rgb(0%, 12.716675%, 29.730225%)" offset="0.445312"/><stop stop-opacity="1" stop-color="rgb(0%, 12.878418%, 30.111694%)" offset="0.453125"/><stop stop-opacity="1" stop-color="rgb(0%, 13.041687%, 30.491638%)" offset="0.460938"/><stop stop-opacity="1" stop-color="rgb(0%, 13.20343%, 30.871582%)" offset="0.46875"/><stop stop-opacity="1" stop-color="rgb(0%, 13.366699%, 31.251526%)" offset="0.476563"/><stop stop-opacity="1" stop-color="rgb(0%, 13.529968%, 31.632996%)" offset="0.484375"/><stop stop-opacity="1" stop-color="rgb(0%, 13.691711%, 32.012939%)" offset="0.492187"/><stop stop-opacity="1" stop-color="rgb(0%, 13.85498%, 32.392883%)" offset="0.5"/><stop stop-opacity="1" stop-color="rgb(0%, 14.01825%, 32.774353%)" offset="0.507812"/><stop stop-opacity="1" stop-color="rgb(0%, 14.179993%, 33.154297%)" offset="0.515625"/><stop stop-opacity="1" stop-color="rgb(0%, 14.343262%, 33.534241%)" offset="0.523437"/><stop stop-opacity="1" stop-color="rgb(0%, 14.505005%, 33.91571%)" offset="0.53125"/><stop stop-opacity="1" stop-color="rgb(0%, 14.668274%, 34.295654%)" offset="0.539062"/><stop stop-opacity="1" stop-color="rgb(0%, 14.831543%, 34.675598%)" offset="0.546875"/><stop stop-opacity="1" stop-color="rgb(0%, 14.993286%, 35.055542%)" offset="0.554688"/><stop stop-opacity="1" stop-color="rgb(0%, 15.156555%, 35.437012%)" offset="0.5625"/><stop stop-opacity="1" stop-color="rgb(0%, 15.319824%, 35.816956%)" offset="0.570313"/><stop stop-opacity="1" stop-color="rgb(0%, 15.481567%, 36.196899%)" offset="0.578125"/><stop stop-opacity="1" stop-color="rgb(0%, 15.644836%, 36.578369%)" offset="0.585938"/><stop stop-opacity="1" stop-color="rgb(0%, 15.808105%, 36.958313%)" offset="0.59375"/><stop stop-opacity="1" stop-color="rgb(0%, 15.969849%, 37.338257%)" offset="0.601563"/><stop stop-opacity="1" stop-color="rgb(0%, 16.133118%, 37.719727%)" offset="0.609375"/><stop stop-opacity="1" stop-color="rgb(0%, 16.294861%, 38.09967%)" offset="0.617188"/><stop stop-opacity="1" stop-color="rgb(0%, 16.45813%, 38.479614%)" offset="0.625"/><stop stop-opacity="1" stop-color="rgb(0%, 16.621399%, 38.859558%)" offset="0.629791"/><stop stop-opacity="1" stop-color="rgb(0%, 16.702271%, 39.050293%)" offset="0.632813"/><stop stop-opacity="1" stop-color="rgb(0%, 16.783142%, 39.241028%)" offset="0.640625"/><stop stop-opacity="1" stop-color="rgb(0%, 16.946411%, 39.620972%)" offset="0.648438"/><stop stop-opacity="1" stop-color="rgb(0%, 17.10968%, 40.000916%)" offset="0.65625"/><stop stop-opacity="1" stop-color="rgb(0%, 17.271423%, 40.382385%)" offset="0.664062"/><stop stop-opacity="1" stop-color="rgb(0%, 17.434692%, 40.762329%)" offset="0.671875"/><stop stop-opacity="1" stop-color="rgb(0%, 17.597961%, 41.142273%)" offset="0.679688"/><stop stop-opacity="1" stop-color="rgb(0%, 17.759705%, 41.523743%)" offset="0.6875"/><stop stop-opacity="1" stop-color="rgb(0%, 17.922974%, 41.903687%)" offset="0.695312"/><stop stop-opacity="1" stop-color="rgb(0%, 18.084717%, 42.28363%)" offset="0.703125"/><stop stop-opacity="1" stop-color="rgb(0%, 18.247986%, 42.663574%)" offset="0.710937"/><stop stop-opacity="1" stop-color="rgb(0%, 18.411255%, 43.045044%)" offset="0.71875"/><stop stop-opacity="1" stop-color="rgb(0%, 18.572998%, 43.424988%)" offset="0.726562"/><stop stop-opacity="1" stop-color="rgb(0%, 18.736267%, 43.804932%)" offset="0.734375"/><stop stop-opacity="1" stop-color="rgb(0%, 18.899536%, 44.186401%)" offset="0.742187"/><stop stop-opacity="1" stop-color="rgb(0%, 19.061279%, 44.566345%)" offset="0.75"/><stop stop-opacity="1" stop-color="rgb(0%, 19.224548%, 44.946289%)" offset="0.757812"/><stop stop-opacity="1" stop-color="rgb(0%, 19.386292%, 45.327759%)" offset="0.765625"/><stop stop-opacity="1" stop-color="rgb(0%, 19.549561%, 45.707703%)" offset="0.773437"/><stop stop-opacity="1" stop-color="rgb(0%, 19.71283%, 46.087646%)" offset="0.78125"/><stop stop-opacity="1" stop-color="rgb(0%, 19.874573%, 46.46759%)" offset="0.789062"/><stop stop-opacity="1" stop-color="rgb(0%, 20.037842%, 46.84906%)" offset="0.796875"/><stop stop-opacity="1" stop-color="rgb(0%, 20.201111%, 47.229004%)" offset="0.804687"/><stop stop-opacity="1" stop-color="rgb(0%, 20.362854%, 47.608948%)" offset="0.8125"/><stop stop-opacity="1" stop-color="rgb(0%, 20.526123%, 47.990417%)" offset="0.820312"/><stop stop-opacity="1" stop-color="rgb(0%, 20.689392%, 48.370361%)" offset="0.828125"/><stop stop-opacity="1" stop-color="rgb(0%, 20.851135%, 48.750305%)" offset="0.835938"/><stop stop-opacity="1" stop-color="rgb(0%, 21.014404%, 49.131775%)" offset="0.84375"/><stop stop-opacity="1" stop-color="rgb(0%, 21.176147%, 49.511719%)" offset="0.851562"/><stop stop-opacity="1" stop-color="rgb(0%, 21.339417%, 49.891663%)" offset="0.859375"/><stop stop-opacity="1" stop-color="rgb(0%, 21.502686%, 50.271606%)" offset="0.867187"/><stop stop-opacity="1" stop-color="rgb(0%, 21.664429%, 50.653076%)" offset="0.875"/><stop stop-opacity="1" stop-color="rgb(0%, 21.827698%, 51.03302%)" offset="0.882812"/><stop stop-opacity="1" stop-color="rgb(0%, 21.990967%, 51.412964%)" offset="0.890625"/><stop stop-opacity="1" stop-color="rgb(0%, 22.15271%, 51.794434%)" offset="0.898437"/><stop stop-opacity="1" stop-color="rgb(0%, 22.315979%, 52.174377%)" offset="0.90625"/><stop stop-opacity="1" stop-color="rgb(0%, 22.477722%, 52.554321%)" offset="0.914062"/><stop stop-opacity="1" stop-color="rgb(0%, 22.640991%, 52.935791%)" offset="0.921875"/><stop stop-opacity="1" stop-color="rgb(0%, 22.80426%, 53.315735%)" offset="0.929688"/><stop stop-opacity="1" stop-color="rgb(0%, 22.966003%, 53.695679%)" offset="0.9375"/><stop stop-opacity="1" stop-color="rgb(0%, 23.129272%, 54.075623%)" offset="0.945313"/><stop stop-opacity="1" stop-color="rgb(0%, 23.292542%, 54.457092%)" offset="0.953125"/><stop stop-opacity="1" stop-color="rgb(0%, 23.454285%, 54.837036%)" offset="0.960938"/><stop stop-opacity="1" stop-color="rgb(0%, 23.617554%, 55.21698%)" offset="0.96875"/><stop stop-opacity="1" stop-color="rgb(0%, 23.780823%, 55.59845%)" offset="0.976563"/><stop stop-opacity="1" stop-color="rgb(0%, 23.942566%, 55.978394%)" offset="0.984375"/><stop stop-opacity="1" stop-color="rgb(0%, 24.105835%, 56.358337%)" offset="0.992188"/><stop stop-opacity="1" stop-color="rgb(0%, 24.267578%, 56.739807%)" offset="1"/></linearGradient><clipPath id="56ee2080cf"><path d="M 189.820312 171.851562 L 248.902344 171.851562 L 248.902344 227.492188 L 189.820312 227.492188 Z M 189.820312 171.851562 " clip-rule="nonzero"/></clipPath><clipPath id="a441ef9dcb"><path d="M 125.902344 171 L 186 171 L 186 228 L 125.902344 228 Z M 125.902344 171 " clip-rule="nonzero"/></clipPath><clipPath id="2c296fc878"><path d="M 128.425781 215.242188 L 246.492188 215.242188 L 246.492188 230.445312 L 128.425781 230.445312 Z M 128.425781 215.242188 " clip-rule="nonzero"/></clipPath><clipPath id="9859b66604"><path d="M 75.648438 181 L 81 181 L 81 190 L 75.648438 190 Z M 75.648438 181 " clip-rule="nonzero"/></clipPath><clipPath id="db835853a7"><path d="M 87 181 L 92.898438 181 L 92.898438 190 L 87 190 Z M 87 181 " clip-rule="nonzero"/></clipPath><clipPath id="988b6bbf1a"><path d="M 81 179.550781 L 87 179.550781 L 87 191.550781 L 81 191.550781 Z M 81 179.550781 " clip-rule="nonzero"/></clipPath><clipPath id="cbc1b42d20"><path d="M 281.597656 183 L 287 183 L 287 192 L 281.597656 192 Z M 281.597656 183 " clip-rule="nonzero"/></clipPath><clipPath id="0a3d290e63"><path d="M 293 183 L 298.847656 183 L 298.847656 192 L 293 192 Z M 293 183 " clip-rule="nonzero"/></clipPath><clipPath id="d36202bd78"><path d="M 287 181.355469 L 293 181.355469 L 293 193.355469 L 287 193.355469 Z M 287 181.355469 " clip-rule="nonzero"/></clipPath></defs><rect x="-37.5" width="450" fill="#ffffff" y="-37.499999" height="449.999989" fill-opacity="1"/><rect x="-37.5" width="450" fill="#ffffff" y="-37.499999" height="449.999989" fill-opacity="1"/><g clip-path="url(#3c4f815a27)"><g clip-path="url(#dc7edc6de6)"><path fill="url(#8c0f4cf3a2)" d="M 64.4375 64.4375 L 64.4375 310.4375 L 310.4375 310.4375 L 310.4375 64.4375 Z M 64.4375 64.4375 " fill-rule="nonzero"/></g></g><g clip-path="url(#37e74a04ed)"><g clip-path="url(#d61c3065ad)"><path fill="url(#e5de9f3ee7)" d="M 102.402344 102.402344 L 102.402344 272.601562 L 272.601562 272.601562 L 272.601562 102.402344 Z M 102.402344 102.402344 " fill-rule="nonzero"/></g></g><path fill="#004aad" d="M 189.8125 195.226562 L 189.644531 156.585938 C 204.375 144.195312 229.207031 149.632812 238.996094 159.613281 C 231.222656 153.421875 207.878906 146.632812 192.71875 158.300781 L 189.8125 195.226562 " fill-opacity="1" fill-rule="nonzero"/><path fill="#004aad" d="M 185.179688 195.226562 L 185.351562 156.585938 C 170.621094 144.195312 145.789062 149.632812 135.996094 159.613281 C 143.769531 153.421875 167.117188 146.632812 182.277344 158.300781 L 185.179688 195.226562 " fill-opacity="1" fill-rule="nonzero"/><g clip-path="url(#56ee2080cf)"><path fill="#004aad" d="M 189.847656 216.15625 C 198.648438 209.972656 210.792969 209.003906 221.222656 211.644531 C 231.648438 214.289062 240.9375 220.320312 249.078125 227.351562 L 242.082031 171.9375 L 246.367188 220.785156 C 246.367188 220.785156 234.269531 210.777344 217.855469 208.742188 C 198.132812 206.300781 189.847656 216.15625 189.847656 216.15625 " fill-opacity="1" fill-rule="nonzero"/></g><g clip-path="url(#a441ef9dcb)"><path fill="#004aad" d="M 185.148438 216.15625 C 176.34375 209.972656 164.203125 209.003906 153.773438 211.644531 C 143.347656 214.289062 134.058594 220.320312 125.914062 227.351562 L 132.914062 171.9375 L 128.628906 220.785156 C 128.628906 220.785156 140.722656 210.777344 157.140625 208.742188 C 176.859375 206.300781 185.148438 216.15625 185.148438 216.15625 " fill-opacity="1" fill-rule="nonzero"/></g><g clip-path="url(#2c296fc878)"><path fill="#0097b2" d="M 213.671875 215.332031 C 201.21875 214.992188 192.726562 220.636719 189.234375 223.507812 C 188.222656 224.335938 186.769531 224.335938 185.761719 223.507812 C 182.269531 220.636719 173.777344 214.992188 161.324219 215.332031 C 145.855469 215.753906 132.78125 226.558594 128.570312 230.800781 L 132.660156 230.800781 C 138.027344 225.792969 148.539062 218.632812 161.585938 218.675781 C 170.597656 218.707031 177.445312 221.933594 181.828125 224.890625 C 182.554688 225.382812 182.992188 226.199219 182.992188 227.074219 C 182.992188 228.53125 184.171875 229.710938 185.625 229.710938 L 189.371094 229.710938 C 190.824219 229.710938 192.003906 228.53125 192.003906 227.074219 C 192.003906 226.199219 192.4375 225.382812 193.164062 224.890625 C 197.550781 221.933594 204.398438 218.707031 213.410156 218.675781 C 226.453125 218.632812 238.441406 226.015625 244.484375 230.800781 L 246.425781 230.800781 C 242.214844 226.558594 229.140625 215.753906 213.671875 215.332031 " fill-opacity="1" fill-rule="nonzero"/></g><g clip-path="url(#9859b66604)"><path fill="#000000" d="M 80.023438 189.859375 C 79.769531 189.859375 79.597656 189.773438 79.429688 189.605469 L 76.027344 186.226562 C 75.6875 185.886719 75.6875 185.378906 76.027344 185.042969 L 79.429688 181.664062 C 79.769531 181.324219 80.277344 181.324219 80.617188 181.664062 C 80.957031 182 80.957031 182.507812 80.617188 182.84375 L 77.8125 185.632812 L 80.617188 188.421875 C 80.957031 188.761719 80.957031 189.269531 80.617188 189.605469 C 80.449219 189.773438 80.277344 189.859375 80.023438 189.859375 Z M 80.023438 189.859375 " fill-opacity="1" fill-rule="nonzero"/></g><g clip-path="url(#db835853a7)"><path fill="#000000" d="M 88.527344 189.859375 C 88.273438 189.859375 88.101562 189.773438 87.933594 189.605469 C 87.59375 189.269531 87.59375 188.761719 87.933594 188.421875 L 90.738281 185.632812 L 87.933594 182.84375 C 87.59375 182.507812 87.59375 182 87.933594 181.664062 C 88.273438 181.324219 88.78125 181.324219 89.121094 181.664062 L 92.523438 185.042969 C 92.863281 185.378906 92.863281 185.886719 92.523438 186.226562 L 89.121094 189.605469 C 88.953125 189.773438 88.78125 189.859375 88.527344 189.859375 Z M 88.527344 189.859375 " fill-opacity="1" fill-rule="nonzero"/></g><g clip-path="url(#988b6bbf1a)"><path fill="#000000" d="M 82.574219 191.550781 C 82.488281 191.550781 82.40625 191.550781 82.320312 191.464844 C 81.894531 191.296875 81.640625 190.875 81.808594 190.367188 L 85.210938 180.226562 C 85.378906 179.804688 85.804688 179.550781 86.316406 179.71875 C 86.742188 179.886719 86.996094 180.308594 86.828125 180.816406 L 83.425781 190.957031 C 83.253906 191.296875 82.914062 191.550781 82.574219 191.550781 Z M 82.574219 191.550781 " fill-opacity="1" fill-rule="nonzero"/></g><g fill="#000000" fill-opacity="1"><g transform="translate(113.899081, 128.524296)"><g><path d="M 7.289062 -10.796875 C 7.203125 -10.792969 7.148438 -10.761719 7.09375 -10.703125 C 7.054688 -10.660156 7.027344 -10.574219 7.03125 -10.488281 C 7.125 -8.851562 6.558594 -7.496094 4.851562 -5.644531 C 4.039062 -4.761719 3.058594 -4.171875 2.007812 -3.886719 L -6.59375 -11.816406 C -6.382812 -12.902344 -5.886719 -13.910156 -5.070312 -14.792969 C -3.351562 -16.660156 -1.304688 -17.113281 -0.0390625 -15.945312 L 0.0351562 -15.878906 C 0.183594 -15.742188 0.363281 -15.792969 0.457031 -15.894531 C 0.554688 -16 0.589844 -16.183594 0.441406 -16.320312 L -1.96875 -18.542969 C -2.101562 -18.664062 -2.285156 -18.613281 -2.378906 -18.511719 C -2.472656 -18.40625 -2.507812 -18.222656 -2.375 -18.101562 L -1.363281 -17.164062 C -2.695312 -17.28125 -4.222656 -16.539062 -5.484375 -15.171875 C -7.800781 -12.660156 -8.164062 -8.34375 -4.738281 -5.183594 C -1.296875 -2.011719 2.957031 -2.765625 5.261719 -5.265625 C 7.050781 -7.207031 7.695312 -8.730469 7.609375 -10.496094 C 7.609375 -10.582031 7.578125 -10.664062 7.515625 -10.71875 C 7.457031 -10.773438 7.371094 -10.796875 7.289062 -10.796875 Z M -4.332031 -5.625 C -6.007812 -7.171875 -6.796875 -9.175781 -6.675781 -11.078125 L 1.292969 -3.730469 C -0.605469 -3.441406 -2.65625 -4.082031 -4.332031 -5.625 Z M -4.332031 -5.625 "/></g></g></g><g fill="#000000" fill-opacity="1"><g transform="translate(122.998172, 118.55478)"><g><path d="M -2.722656 -16.101562 C -6.140625 -13.398438 -6.589844 -9.292969 -3.875 -5.859375 C -1.167969 -2.441406 2.929688 -1.9375 6.347656 -4.640625 C 9.75 -7.335938 10.199219 -11.4375 7.492188 -14.855469 C 4.773438 -18.289062 0.679688 -18.796875 -2.722656 -16.101562 Z M 2.648438 -3.550781 L -4.636719 -12.753906 C -4.199219 -13.8125 -3.441406 -14.820312 -2.375 -15.664062 C -1.3125 -16.507812 -0.171875 -17 0.960938 -17.183594 L 8.246094 -7.980469 C 7.808594 -6.921875 7.066406 -5.925781 6 -5.082031 C 4.933594 -4.238281 3.777344 -3.730469 2.648438 -3.550781 Z M -3.417969 -6.21875 C -4.894531 -8.085938 -5.367188 -10.160156 -4.859375 -12.066406 L 1.929688 -3.492188 C -0.0273438 -3.417969 -1.941406 -4.355469 -3.417969 -6.21875 Z M 8.464844 -8.664062 L 1.679688 -17.242188 C 3.636719 -17.3125 5.550781 -16.378906 7.039062 -14.496094 C 8.515625 -12.632812 8.984375 -10.554688 8.464844 -8.664062 Z M 8.464844 -8.664062 "/></g></g></g><g fill="#000000" fill-opacity="1"><g transform="translate(135.680306, 108.6315)"><g><path d="M 4.945312 -18.761719 L 2.078125 -17.167969 C 1.921875 -17.082031 1.875 -16.917969 1.953125 -16.777344 C 2.03125 -16.636719 2.195312 -16.589844 2.351562 -16.679688 L 3.503906 -17.320312 L 7.515625 -10.101562 L -2.007812 -14.804688 C -2.070312 -14.839844 -2.148438 -14.816406 -2.203125 -14.789062 L -5.941406 -12.710938 C -6.066406 -12.640625 -6.121094 -12.496094 -6.035156 -12.339844 C -5.957031 -12.199219 -5.792969 -12.152344 -5.671875 -12.222656 L -4.710938 -12.753906 L 1.546875 -1.5 L 0.445312 -0.886719 C 0.324219 -0.820312 0.257812 -0.648438 0.335938 -0.507812 C 0.421875 -0.351562 0.59375 -0.332031 0.714844 -0.398438 L 3.933594 -2.183594 C 4.070312 -2.261719 4.144531 -2.417969 4.058594 -2.574219 C 3.980469 -2.714844 3.800781 -2.753906 3.660156 -2.675781 L 2.070312 -1.789062 L -3.710938 -12.191406 L 9.800781 -5.539062 C 10.085938 -5.398438 10.300781 -5.382812 10.457031 -5.46875 C 10.613281 -5.554688 10.59375 -5.796875 10.410156 -6.128906 L 4.03125 -17.613281 L 5.21875 -18.273438 C 5.359375 -18.347656 5.40625 -18.511719 5.328125 -18.652344 C 5.25 -18.792969 5.085938 -18.839844 4.945312 -18.761719 Z M 9.644531 -6.273438 L -4.148438 -13.066406 L -2.105469 -14.203125 L 8.011719 -9.210938 Z M 9.644531 -6.273438 "/></g></g></g><g fill="#000000" fill-opacity="1"><g transform="translate(148.470494, 101.470953)"><g><path d="M 13.730469 -5.492188 L 12.789062 -5.15625 L 8.464844 -17.285156 L 9.328125 -17.59375 C 9.480469 -17.644531 9.570312 -17.804688 9.519531 -17.957031 C 9.464844 -18.105469 9.292969 -18.171875 9.140625 -18.121094 L 4.566406 -16.488281 C 4.414062 -16.433594 4.324219 -16.273438 4.375 -16.125 C 4.429688 -15.972656 4.601562 -15.90625 4.753906 -15.960938 L 5.523438 -16.234375 L 7.492188 -10.71875 L 2.710938 -9.011719 L 0.742188 -14.53125 L 1.664062 -14.859375 C 1.816406 -14.914062 1.886719 -15.066406 1.835938 -15.214844 C 1.78125 -15.367188 1.628906 -15.441406 1.476562 -15.386719 L -3.214844 -13.714844 C -3.402344 -13.648438 -3.472656 -13.492188 -3.421875 -13.34375 C -3.367188 -13.191406 -3.214844 -13.121094 -3.023438 -13.1875 L -2.195312 -13.480469 L 2.128906 -1.351562 L 1.113281 -0.992188 C 0.960938 -0.9375 0.886719 -0.785156 0.941406 -0.632812 C 1.003906 -0.464844 1.148438 -0.410156 1.300781 -0.464844 L 6.367188 -2.269531 C 6.515625 -2.324219 6.597656 -2.457031 6.535156 -2.628906 C 6.480469 -2.777344 6.328125 -2.851562 6.175781 -2.796875 L 5.066406 -2.402344 L 2.898438 -8.484375 L 7.679688 -10.191406 L 9.851562 -4.105469 L 8.777344 -3.722656 C 8.625 -3.671875 8.535156 -3.511719 8.589844 -3.359375 C 8.640625 -3.207031 8.8125 -3.144531 8.964844 -3.195312 L 13.917969 -4.964844 C 14.070312 -5.015625 14.160156 -5.175781 14.105469 -5.328125 C 14.050781 -5.476562 13.878906 -5.542969 13.730469 -5.492188 Z M 4.5 -2.199219 L 2.695312 -1.554688 L -1.632812 -13.683594 L 0.175781 -14.328125 Z M 10.414062 -4.308594 L 6.089844 -16.4375 L 7.898438 -17.082031 L 12.222656 -4.953125 Z M 10.414062 -4.308594 "/></g></g></g><g fill="#000000" fill-opacity="1"><g transform="translate(164.223824, 96.077571)"><g><path d="M 9.648438 -5.085938 C 9.507812 -5.058594 9.371094 -4.929688 9.410156 -4.734375 L 9.847656 -2.476562 L 5.234375 -1.582031 L 4.011719 -7.902344 L 7.917969 -8.660156 L 8.109375 -7.660156 C 8.144531 -7.480469 8.300781 -7.410156 8.476562 -7.445312 C 8.613281 -7.472656 8.734375 -7.597656 8.699219 -7.773438 L 8.191406 -10.402344 C 8.15625 -10.578125 7.980469 -10.648438 7.84375 -10.621094 C 7.683594 -10.589844 7.566406 -10.464844 7.601562 -10.289062 L 7.808594 -9.210938 L 3.902344 -8.453125 L 2.785156 -14.226562 L 7.261719 -15.089844 L 7.644531 -13.128906 C 7.675781 -12.953125 7.851562 -12.882812 7.988281 -12.910156 C 8.128906 -12.9375 8.265625 -13.066406 8.230469 -13.242188 L 7.796875 -15.480469 C 7.769531 -15.636719 7.628906 -15.730469 7.449219 -15.699219 L -1.207031 -14.023438 C -1.382812 -13.988281 -1.453125 -13.832031 -1.429688 -13.695312 C -1.398438 -13.539062 -1.277344 -13.4375 -1.101562 -13.472656 L -0.277344 -13.632812 L 2.171875 -0.992188 L 1.25 -0.8125 C 1.070312 -0.777344 0.996094 -0.640625 1.027344 -0.484375 C 1.054688 -0.347656 1.179688 -0.226562 1.355469 -0.261719 L 10.246094 -1.984375 C 10.40625 -2.011719 10.519531 -2.15625 10.488281 -2.316406 L 10 -4.847656 C 9.960938 -5.042969 9.785156 -5.109375 9.648438 -5.085938 Z M 2.757812 -1.105469 L 0.3125 -13.746094 L 2.199219 -14.109375 L 4.644531 -1.46875 Z M 2.757812 -1.105469 "/></g></g></g><g fill="#000000" fill-opacity="1"><g transform="translate(176.136735, 93.761517)"><g><path d="M 12.75 -2.667969 C 12.6875 -2.722656 12.625 -2.738281 12.546875 -2.734375 C 12.484375 -2.730469 12.40625 -2.6875 12.351562 -2.625 C 11.277344 -1.382812 9.929688 -0.808594 7.414062 -0.667969 C 6.214844 -0.601562 5.097656 -0.863281 4.148438 -1.390625 L 3.503906 -13.070312 C 4.410156 -13.699219 5.472656 -14.078125 6.667969 -14.144531 C 9.203125 -14.285156 10.988281 -13.183594 11.082031 -11.464844 L 11.085938 -11.367188 C 11.097656 -11.164062 11.265625 -11.074219 11.402344 -11.082031 C 11.542969 -11.089844 11.699219 -11.199219 11.6875 -11.398438 L 11.507812 -14.671875 C 11.496094 -14.851562 11.332031 -14.945312 11.191406 -14.9375 C 11.050781 -14.929688 10.898438 -14.820312 10.90625 -14.640625 L 10.984375 -13.261719 C 10.105469 -14.273438 8.496094 -14.808594 6.636719 -14.703125 C 3.222656 -14.515625 -0.0429688 -11.671875 0.214844 -7.019531 C 0.472656 -2.347656 4.050781 0.078125 7.445312 -0.109375 C 10.078125 -0.253906 11.605469 -0.902344 12.773438 -2.226562 C 12.828125 -2.289062 12.867188 -2.371094 12.859375 -2.453125 C 12.855469 -2.53125 12.8125 -2.609375 12.75 -2.667969 Z M 0.8125 -7.054688 C 0.6875 -9.328125 1.519531 -11.316406 2.929688 -12.597656 L 3.527344 -1.777344 C 1.964844 -2.890625 0.9375 -4.777344 0.8125 -7.054688 Z M 0.8125 -7.054688 "/></g></g></g><g fill="#000000" fill-opacity="1"><g transform="translate(189.867301, 93.191574)"><g><path d="M 6.800781 -0.121094 L 5.601562 -0.199219 L 6.429688 -13.050781 L 7.429688 -12.984375 C 7.589844 -12.976562 7.714844 -13.085938 7.726562 -13.246094 C 7.734375 -13.40625 7.625 -13.535156 7.464844 -13.542969 L 2.4375 -13.867188 C 2.238281 -13.882812 2.109375 -13.769531 2.097656 -13.609375 C 2.089844 -13.449219 2.199219 -13.324219 2.398438 -13.308594 L 3.316406 -13.25 L 2.492188 -0.402344 L 1.414062 -0.46875 C 1.253906 -0.480469 1.125 -0.367188 1.117188 -0.207031 C 1.105469 -0.0273438 1.21875 0.078125 1.375 0.0898438 L 6.765625 0.4375 C 6.925781 0.445312 7.050781 0.355469 7.0625 0.175781 C 7.070312 0.015625 6.960938 -0.113281 6.800781 -0.121094 Z M 3.089844 -0.363281 L 3.917969 -13.210938 L 5.832031 -13.089844 L 5.003906 -0.238281 Z M 3.089844 -0.363281 "/></g></g></g><g fill="#000000" fill-opacity="1"><g transform="translate(198.554315, 93.359152)"><g><path d="M 17.835938 3.332031 L 16.742188 3.09375 L 19.496094 -9.488281 L 20.394531 -9.289062 C 20.570312 -9.25 20.691406 -9.347656 20.726562 -9.503906 C 20.757812 -9.640625 20.691406 -9.796875 20.515625 -9.835938 L 16.820312 -10.644531 C 16.664062 -10.679688 16.535156 -10.644531 16.4375 -10.484375 L 10.773438 -1.816406 L 8.414062 -12.261719 C 8.386719 -12.410156 8.285156 -12.515625 8.128906 -12.546875 L 4.085938 -13.433594 C 3.929688 -13.46875 3.769531 -13.378906 3.734375 -13.222656 C 3.699219 -13.066406 3.8125 -12.921875 3.96875 -12.886719 L 5.0625 -12.648438 L 2.308594 -0.0664062 L 0.921875 -0.371094 C 0.746094 -0.410156 0.617188 -0.292969 0.585938 -0.15625 C 0.554688 0 0.625 0.136719 0.800781 0.175781 L 4.394531 0.960938 C 4.570312 1 4.695312 0.90625 4.726562 0.75 C 4.757812 0.613281 4.691406 0.453125 4.515625 0.414062 L 2.894531 0.0585938 L 5.417969 -11.464844 L 8.453125 1.972656 C 8.484375 2.101562 8.570312 2.183594 8.667969 2.203125 C 8.765625 2.226562 8.875 2.1875 8.964844 2.066406 L 16.203125 -9.039062 L 16.253906 -9.171875 L 13.714844 2.429688 L 12.875 2.246094 C 12.679688 2.203125 12.550781 2.316406 12.523438 2.453125 C 12.492188 2.589844 12.558594 2.75 12.753906 2.792969 L 17.714844 3.878906 C 17.890625 3.917969 18.015625 3.820312 18.050781 3.664062 C 18.078125 3.527344 18.011719 3.371094 17.835938 3.332031 Z M 10.320312 -1.136719 L 8.867188 1.101562 L 5.804688 -12.484375 L 7.855469 -12.035156 Z M 14.300781 2.558594 L 17.054688 -10.019531 L 18.910156 -9.613281 L 16.15625 2.964844 Z M 14.300781 2.558594 "/></g></g></g><g fill="#000000" fill-opacity="1"><g transform="translate(217.877918, 97.962541)"><g><path d="M 10.863281 0.972656 C 10.730469 0.921875 10.546875 0.953125 10.472656 1.140625 L 9.613281 3.273438 L 5.253906 1.515625 L 7.660156 -4.457031 L 11.351562 -2.96875 L 10.96875 -2.023438 C 10.902344 -1.855469 10.996094 -1.710938 11.160156 -1.644531 C 11.292969 -1.589844 11.460938 -1.632812 11.527344 -1.796875 L 12.527344 -4.285156 C 12.59375 -4.449219 12.484375 -4.601562 12.355469 -4.65625 C 12.207031 -4.714844 12.039062 -4.675781 11.972656 -4.507812 L 11.5625 -3.488281 L 7.871094 -4.976562 L 10.070312 -10.429688 L 14.296875 -8.722656 L 13.550781 -6.867188 C 13.480469 -6.703125 13.59375 -6.550781 13.722656 -6.496094 C 13.851562 -6.445312 14.039062 -6.476562 14.105469 -6.644531 L 14.957031 -8.757812 C 15.019531 -8.90625 14.953125 -9.0625 14.785156 -9.128906 L 6.605469 -12.429688 C 6.4375 -12.496094 6.292969 -12.402344 6.242188 -12.273438 C 6.183594 -12.125 6.230469 -11.976562 6.398438 -11.910156 L 7.175781 -11.59375 L 2.359375 0.347656 L 1.488281 -0.00390625 C 1.320312 -0.0703125 1.183594 0.00390625 1.125 0.152344 C 1.074219 0.28125 1.113281 0.449219 1.28125 0.515625 L 9.679688 3.902344 C 9.828125 3.960938 10.003906 3.902344 10.0625 3.753906 L 11.027344 1.363281 C 11.101562 1.179688 10.992188 1.023438 10.863281 0.972656 Z M 2.917969 0.574219 L 7.730469 -11.371094 L 9.511719 -10.652344 L 4.695312 1.289062 Z M 2.917969 0.574219 "/></g></g></g><g fill="#000000" fill-opacity="1"><g transform="translate(229.118904, 102.433204)"><g><path d="M 18.644531 -5.371094 L 15.804688 -7.015625 C 15.652344 -7.105469 15.488281 -7.0625 15.40625 -6.925781 C 15.328125 -6.785156 15.371094 -6.621094 15.527344 -6.53125 L 16.667969 -5.871094 L 12.527344 1.273438 L 11.683594 -9.3125 C 11.679688 -9.386719 11.621094 -9.441406 11.566406 -9.472656 L 7.867188 -11.617188 C 7.746094 -11.6875 7.589844 -11.664062 7.5 -11.507812 C 7.421875 -11.367188 7.464844 -11.203125 7.585938 -11.132812 L 8.535156 -10.582031 L 2.078125 0.558594 L 0.988281 -0.0742188 C 0.867188 -0.144531 0.6875 -0.109375 0.609375 0.0273438 C 0.515625 0.183594 0.589844 0.339844 0.710938 0.410156 L 3.890625 2.253906 C 4.03125 2.335938 4.203125 2.320312 4.292969 2.164062 C 4.371094 2.027344 4.3125 1.851562 4.171875 1.769531 L 2.597656 0.859375 L 8.5625 -9.433594 L 9.78125 5.574219 C 9.804688 5.890625 9.902344 6.085938 10.054688 6.175781 C 10.210938 6.265625 10.410156 6.125 10.597656 5.796875 L 17.1875 -5.570312 L 18.363281 -4.886719 C 18.5 -4.808594 18.664062 -4.851562 18.746094 -4.988281 C 18.824219 -5.128906 18.78125 -5.292969 18.644531 -5.371094 Z M 10.332031 5.0625 L 9.089844 -10.261719 L 11.113281 -9.089844 L 12.015625 2.15625 Z M 10.332031 5.0625 "/></g></g></g><g fill="#000000" fill-opacity="1"><g transform="translate(241.862258, 109.98757)"><g><path d="M 17.167969 -4.316406 L 8.925781 -10.785156 C 8.800781 -10.886719 8.617188 -10.878906 8.515625 -10.753906 L 7 -8.816406 C 6.898438 -8.691406 6.921875 -8.496094 7.050781 -8.394531 C 7.191406 -8.285156 7.371094 -8.320312 7.46875 -8.445312 L 8.816406 -10.160156 L 11.441406 -8.097656 L 3.492188 2.027344 L 2.625 1.351562 C 2.5 1.25 2.316406 1.257812 2.21875 1.386719 C 2.117188 1.511719 2.15625 1.691406 2.28125 1.789062 L 6.496094 5.097656 C 6.605469 5.1875 6.789062 5.179688 6.886719 5.050781 C 6.988281 4.925781 6.953125 4.746094 6.839844 4.660156 L 5.945312 3.957031 L 13.894531 -6.171875 L 16.585938 -4.0625 L 15.238281 -2.347656 C 15.140625 -2.222656 15.164062 -2.023438 15.289062 -1.925781 C 15.417969 -1.828125 15.613281 -1.851562 15.710938 -1.976562 L 17.230469 -3.910156 C 17.328125 -4.039062 17.292969 -4.21875 17.167969 -4.316406 Z M 13.425781 -6.542969 L 5.472656 3.585938 L 3.964844 2.398438 L 11.914062 -7.730469 Z M 13.425781 -6.542969 "/></g></g></g><g fill="#000000" fill-opacity="1"><g transform="translate(251.163748, 117.126882)"><g><path d="M 15.800781 -4.132812 C 12.804688 -7.300781 8.675781 -7.382812 5.496094 -4.375 C 2.328125 -1.378906 2.1875 2.746094 5.183594 5.914062 C 8.164062 9.066406 12.292969 9.148438 15.460938 6.152344 C 18.640625 3.144531 18.78125 -0.980469 15.800781 -4.132812 Z M 3.769531 2.324219 L 12.292969 -5.742188 C 13.386719 -5.402344 14.457031 -4.734375 15.394531 -3.75 C 16.328125 -2.761719 16.917969 -1.667969 17.199219 -0.558594 L 8.675781 7.507812 C 7.582031 7.167969 6.523438 6.515625 5.589844 5.527344 C 4.65625 4.542969 4.050781 3.433594 3.769531 2.324219 Z M 5.894531 -3.953125 C 7.621094 -5.589844 9.648438 -6.242188 11.589844 -5.902344 L 3.648438 1.613281 C 3.402344 -0.332031 4.164062 -2.316406 5.894531 -3.953125 Z M 9.378906 7.667969 L 17.320312 0.152344 C 17.566406 2.097656 16.804688 4.082031 15.0625 5.734375 C 13.332031 7.367188 11.304688 8.019531 9.378906 7.667969 Z M 9.378906 7.667969 "/></g></g></g><g fill="#000000" fill-opacity="1"><g transform="translate(138.872066, 285.861602)"><g><path d="M 11.714844 -11.242188 L 15.035156 -12.226562 C 15.238281 -12.292969 15.328125 -12.449219 15.273438 -12.625 C 15.207031 -12.828125 15.050781 -12.917969 14.839844 -12.835938 L 11.566406 -11.652344 C 11.433594 -11.601562 11.316406 -11.523438 11.378906 -11.363281 C 11.441406 -11.207031 11.566406 -11.195312 11.714844 -11.242188 Z M 10.835938 1.222656 C 10.707031 1.167969 10.519531 1.195312 10.441406 1.378906 L 9.53125 3.492188 L 5.21875 1.636719 L 7.761719 -4.277344 L 11.417969 -2.707031 L 11.015625 -1.769531 C 10.941406 -1.605469 11.03125 -1.457031 11.195312 -1.386719 C 11.324219 -1.332031 11.492188 -1.367188 11.566406 -1.53125 L 12.625 -3.992188 C 12.695312 -4.160156 12.585938 -4.3125 12.460938 -4.367188 C 12.3125 -4.433594 12.144531 -4.394531 12.074219 -4.230469 L 11.636719 -3.21875 L 7.984375 -4.792969 L 10.308594 -10.191406 L 14.496094 -8.390625 L 13.703125 -6.554688 C 13.632812 -6.386719 13.742188 -6.234375 13.867188 -6.179688 C 13.996094 -6.121094 14.183594 -6.152344 14.253906 -6.316406 L 15.15625 -8.410156 C 15.21875 -8.558594 15.15625 -8.714844 14.992188 -8.785156 L 6.890625 -12.273438 C 6.726562 -12.34375 6.578125 -12.253906 6.523438 -12.125 C 6.460938 -11.976562 6.503906 -11.828125 6.671875 -11.757812 L 7.441406 -11.425781 L 2.351562 0.402344 L 1.488281 0.03125 C 1.324219 -0.0390625 1.183594 0.03125 1.121094 0.175781 C 1.066406 0.304688 1.101562 0.472656 1.265625 0.546875 L 9.585938 4.125 C 9.734375 4.1875 9.910156 4.132812 9.972656 3.988281 L 10.992188 1.617188 C 11.070312 1.433594 10.964844 1.277344 10.835938 1.222656 Z M 2.902344 0.640625 L 7.992188 -11.1875 L 9.757812 -10.429688 L 4.667969 1.398438 Z M 2.902344 0.640625 "/></g></g></g><g fill="#000000" fill-opacity="1"><g transform="translate(151.736723, 291.115211)"><g/></g></g><g fill="#000000" fill-opacity="1"><g transform="translate(159.718252, 293.650551)"><g><path d="M 10.042969 -12.226562 L 4.34375 -13.394531 C 4.167969 -13.433594 4.027344 -13.339844 3.992188 -13.164062 C 3.957031 -13.007812 4.054688 -12.882812 4.234375 -12.847656 L 4.996094 -12.691406 L 2.402344 -0.078125 L 1.464844 -0.269531 C 1.308594 -0.304688 1.167969 -0.230469 1.132812 -0.0546875 C 1.097656 0.125 1.195312 0.246094 1.351562 0.277344 L 6.304688 1.296875 C 6.464844 1.328125 6.601562 1.253906 6.636719 1.078125 C 6.671875 0.902344 6.574219 0.78125 6.417969 0.746094 L 5.460938 0.550781 L 6.488281 -4.464844 L 8.371094 -4.078125 C 10.839844 -3.570312 12.601562 -4.902344 13.109375 -7.371094 C 13.609375 -9.796875 12.511719 -11.71875 10.042969 -12.226562 Z M 4.871094 0.429688 L 2.992188 0.0429688 L 5.585938 -12.570312 L 7.464844 -12.183594 Z M 8.484375 -4.625 L 6.601562 -5.011719 L 8.050781 -12.0625 L 9.933594 -11.675781 C 10.226562 -11.617188 10.496094 -11.539062 10.738281 -11.429688 L 9.320312 -4.535156 C 9.054688 -4.527344 8.777344 -4.566406 8.484375 -4.625 Z M 9.945312 -4.589844 L 11.289062 -11.132812 C 12.421875 -10.386719 12.84375 -9.058594 12.523438 -7.488281 C 12.191406 -5.882812 11.28125 -4.828125 9.945312 -4.589844 Z M 9.945312 -4.589844 "/></g></g></g><g fill="#000000" fill-opacity="1"><g transform="translate(173.838469, 296.49692)"><g><path d="M 8.605469 -13.878906 C 4.253906 -14.109375 1.203125 -11.328125 0.96875 -6.957031 C 0.738281 -2.605469 3.476562 0.484375 7.832031 0.714844 C 12.164062 0.945312 15.214844 -1.835938 15.445312 -6.1875 C 15.679688 -10.558594 12.9375 -13.648438 8.605469 -13.878906 Z M 4.332031 -0.910156 L 4.957031 -12.632812 C 5.984375 -13.136719 7.21875 -13.390625 8.578125 -13.320312 C 9.933594 -13.25 11.117188 -12.863281 12.085938 -12.253906 L 11.460938 -0.53125 C 10.433594 -0.0273438 9.21875 0.230469 7.859375 0.15625 C 6.503906 0.0859375 5.300781 -0.300781 4.332031 -0.910156 Z M 1.550781 -6.925781 C 1.675781 -9.300781 2.695312 -11.167969 4.335938 -12.265625 L 3.753906 -1.34375 C 2.238281 -2.585938 1.421875 -4.550781 1.550781 -6.925781 Z M 12.082031 -0.898438 L 12.660156 -11.820312 C 14.179688 -10.578125 14.996094 -8.613281 14.867188 -6.21875 C 14.742188 -3.84375 13.71875 -1.972656 12.082031 -0.898438 Z M 12.082031 -0.898438 "/></g></g></g><g fill="#000000" fill-opacity="1"><g transform="translate(192.375855, 297.207712)"><g><path d="M 5.570312 -14.710938 L -0.0507812 -14.078125 C -0.210938 -14.0625 -0.316406 -13.929688 -0.296875 -13.769531 C -0.28125 -13.609375 -0.148438 -13.503906 0.0117188 -13.523438 L 0.964844 -13.628906 L 2.402344 -0.832031 L 1.308594 -0.710938 C 1.148438 -0.691406 1.042969 -0.558594 1.0625 -0.402344 C 1.082031 -0.222656 1.210938 -0.136719 1.371094 -0.152344 L 7.132812 -0.800781 C 11.304688 -1.269531 13.777344 -4.363281 13.304688 -8.554688 C 12.835938 -12.730469 9.746094 -15.179688 5.570312 -14.710938 Z M 2.996094 -0.898438 L 1.5625 -13.695312 L 3.46875 -13.910156 L 4.90625 -1.113281 Z M 7.070312 -1.355469 L 5.5 -1.179688 L 4.0625 -13.976562 L 5.632812 -14.152344 C 6.984375 -14.304688 8.214844 -14.121094 9.253906 -13.632812 L 10.484375 -2.667969 C 9.578125 -1.960938 8.421875 -1.507812 7.070312 -1.355469 Z M 11.035156 -3.152344 L 9.894531 -13.304688 C 11.433594 -12.328125 12.464844 -10.65625 12.707031 -8.488281 C 12.953125 -6.324219 12.316406 -4.441406 11.035156 -3.152344 Z M 11.035156 -3.152344 "/></g></g></g><g fill="#000000" fill-opacity="1"><g transform="translate(209.695291, 294.949759)"><g><path d="M 9.296875 -5.703125 C 9.160156 -5.667969 9.03125 -5.53125 9.082031 -5.335938 L 9.664062 -3.113281 L 5.117188 -1.921875 L 3.488281 -8.148438 L 7.335938 -9.15625 L 7.59375 -8.171875 C 7.640625 -7.996094 7.800781 -7.9375 7.972656 -7.980469 C 8.109375 -8.015625 8.21875 -8.148438 8.175781 -8.324219 L 7.496094 -10.914062 C 7.449219 -11.089844 7.269531 -11.144531 7.132812 -11.109375 C 6.980469 -11.070312 6.867188 -10.9375 6.914062 -10.761719 L 7.195312 -9.699219 L 3.34375 -8.691406 L 1.855469 -14.375 L 6.265625 -15.53125 L 6.769531 -13.597656 C 6.816406 -13.425781 6.996094 -13.367188 7.132812 -13.402344 C 7.265625 -13.4375 7.398438 -13.578125 7.351562 -13.75 L 6.773438 -15.957031 C 6.734375 -16.109375 6.585938 -16.195312 6.410156 -16.148438 L -2.117188 -13.914062 C -2.292969 -13.867188 -2.351562 -13.707031 -2.316406 -13.574219 C -2.277344 -13.417969 -2.148438 -13.328125 -1.976562 -13.371094 L -1.164062 -13.585938 L 2.101562 -1.128906 L 1.191406 -0.890625 C 1.019531 -0.847656 0.953125 -0.703125 0.992188 -0.550781 C 1.027344 -0.414062 1.160156 -0.304688 1.335938 -0.351562 L 10.097656 -2.648438 C 10.25 -2.6875 10.355469 -2.839844 10.316406 -2.992188 L 9.660156 -5.488281 C 9.609375 -5.683594 9.429688 -5.738281 9.296875 -5.703125 Z M 2.683594 -1.28125 L -0.582031 -13.738281 L 1.273438 -14.222656 L 4.539062 -1.769531 Z M 2.683594 -1.28125 "/></g></g></g><g fill="#000000" fill-opacity="1"><g transform="translate(223.401277, 291.244262)"><g><path d="M 11.609375 -5.457031 L 10.78125 -5.109375 L 9.46875 -8.246094 C 8.976562 -9.425781 7.785156 -10.101562 6.578125 -10.03125 C 7.457031 -11.089844 7.742188 -12.59375 7.15625 -13.996094 C 6.199219 -16.285156 4.160156 -16.90625 2.039062 -16.019531 L -4.011719 -13.492188 C -4.175781 -13.421875 -4.238281 -13.3125 -4.175781 -13.164062 C -4.109375 -12.996094 -3.96875 -12.925781 -3.804688 -12.996094 L -2.9375 -13.355469 L 2.035156 -1.457031 L 1.058594 -1.046875 C 0.910156 -0.988281 0.84375 -0.828125 0.90625 -0.683594 C 0.96875 -0.535156 1.125 -0.46875 1.273438 -0.53125 L 5.699219 -2.382812 C 5.867188 -2.449219 5.914062 -2.601562 5.851562 -2.746094 C 5.789062 -2.894531 5.652344 -2.96875 5.484375 -2.898438 L 4.914062 -2.660156 L 2.695312 -7.972656 L 5.609375 -9.191406 L 7.929688 -3.636719 C 7.996094 -3.472656 8.15625 -3.40625 8.320312 -3.476562 L 11.828125 -4.941406 C 11.972656 -5 12.066406 -5.148438 11.996094 -5.3125 C 11.933594 -5.460938 11.757812 -5.519531 11.609375 -5.457031 Z M 4.359375 -2.429688 L 2.589844 -1.6875 L -2.382812 -13.589844 L -0.613281 -14.328125 Z M 4.949219 -9.523438 L 2.476562 -8.488281 L -0.0585938 -14.558594 L 2.25 -15.523438 C 2.453125 -15.609375 2.660156 -15.675781 2.871094 -15.738281 L 5.378906 -9.742188 C 5.238281 -9.664062 5.097656 -9.582031 4.949219 -9.523438 Z M 6.601562 -13.765625 C 7.148438 -12.457031 6.816406 -11.015625 5.871094 -10.121094 L 3.480469 -15.84375 C 4.816406 -15.964844 5.960938 -15.296875 6.601562 -13.765625 Z M 8.382812 -4.109375 L 6.167969 -9.402344 C 7.265625 -9.6875 8.46875 -9.085938 8.917969 -8.015625 L 10.226562 -4.878906 Z M 8.382812 -4.109375 "/></g></g></g><g clip-path="url(#cbc1b42d20)"><path fill="#000000" d="M 285.972656 191.667969 C 285.714844 191.667969 285.546875 191.582031 285.375 191.414062 L 281.972656 188.035156 C 281.632812 187.695312 281.632812 187.1875 281.972656 186.851562 L 285.375 183.46875 C 285.714844 183.132812 286.226562 183.132812 286.566406 183.46875 C 286.90625 183.808594 286.90625 184.316406 286.566406 184.652344 L 283.761719 187.441406 L 286.566406 190.230469 C 286.90625 190.570312 286.90625 191.074219 286.566406 191.414062 C 286.398438 191.582031 286.226562 191.667969 285.972656 191.667969 Z M 285.972656 191.667969 " fill-opacity="1" fill-rule="nonzero"/></g><g clip-path="url(#0a3d290e63)"><path fill="#000000" d="M 294.476562 191.667969 C 294.222656 191.667969 294.050781 191.582031 293.878906 191.414062 C 293.539062 191.074219 293.539062 190.570312 293.878906 190.230469 L 296.6875 187.441406 L 293.878906 184.652344 C 293.539062 184.316406 293.539062 183.808594 293.878906 183.46875 C 294.222656 183.132812 294.730469 183.132812 295.070312 183.46875 L 298.472656 186.851562 C 298.8125 187.1875 298.8125 187.695312 298.472656 188.035156 L 295.070312 191.414062 C 294.902344 191.582031 294.730469 191.667969 294.476562 191.667969 Z M 294.476562 191.667969 " fill-opacity="1" fill-rule="nonzero"/></g><g clip-path="url(#d36202bd78)"><path fill="#000000" d="M 288.523438 193.355469 C 288.4375 193.355469 288.351562 193.355469 288.269531 193.273438 C 287.84375 193.105469 287.585938 192.679688 287.757812 192.175781 L 291.160156 182.035156 C 291.328125 181.609375 291.753906 181.355469 292.265625 181.527344 C 292.691406 181.695312 292.945312 182.117188 292.773438 182.625 L 289.375 192.765625 C 289.203125 193.105469 288.863281 193.355469 288.523438 193.355469 Z M 288.523438 193.355469 " fill-opacity="1" fill-rule="nonzero"/></g></svg>