<?xml version="1.0" ?><svg height="32" id="svg5" version="1.1" viewBox="0 0 32 32" width="32" xmlns="http://www.w3.org/2000/svg" xmlns:svg="http://www.w3.org/2000/svg"><defs id="defs2"/><g id="layer1" transform="translate(-156,-148)"><path d="m 160,152.01367 c -1.09273,0 -2,0.90727 -2,2 V 172 v 4 0.0137 c 0.008,1.08658 0.91186,1.98633 2,1.98633 h 24 c 1.08814,0 1.99243,-0.89975 2,-1.98633 3e-5,-0.005 0,-0.009 0,-0.0137 v -3 -18.98633 c 0,-1.09273 -0.90727,-2 -2,-2 h -3 v 2 h 3 V 173 v 3 h -24 v -4 -17.98633 h 3 v -2 z m 11.98633,0 c 0.005,0.006 0.009,0.0132 0.0137,0.0195 0.005,-0.006 0.009,-0.0132 0.0137,-0.0195 z" id="path21118" style="color:#000000;fill:#002cba;fill-opacity:1;fill-rule:evenodd;stroke-linecap:round;stroke-linejoin:round;stroke-miterlimit:4.1;-inkscape-stroke:none"/><path d="m 163,150.01367 c -0.55226,6e-5 -0.99994,0.44774 -1,1 v 21.65503 c 6e-5,0.55226 0.44774,0.99994 1,1 h 5 c 1.6687,0 3,1.3313 4,1.3313 1,0 2.3313,-1.3313 4,-1.3313 h 5 c 0.55226,-6e-5 0.99994,-0.44774 1,-1 v -21.65503 c -6e-5,-0.55226 -0.44774,-0.99994 -1,-1 h -5 c -1.63382,0 -3.08609,0.79779 -4,2.01953 -0.91391,-1.22174 -2.36618,-2.01953 -4,-2.01953 z m 1,2 h 4 c 1.6687,0 3,1.3313 3,3 v 17.76441 c -0.84542,-0.65405 -1.85499,-1.10938 -3,-1.10938 h -4 z m 12,0 h 4 v 19.65503 h -4 c -1.14501,0 -2.15458,0.45533 -3,1.10938 v -17.76441 c 0,-1.6687 1.3313,-3 3,-3 z" id="rect10589" style="color:#000000;fill:#00c89f;fill-opacity:1;fill-rule:evenodd;stroke-linecap:round;stroke-linejoin:round;stroke-miterlimit:4.1;-inkscape-stroke:none"/></g></svg>